<svg width="896" height="614" viewBox="0 0 896 614" fill="none" xmlns="http://www.w3.org/2000/svg">
<rect width="745" height="439" transform="translate(71 75)" fill="black"/>
<g filter="url(#filter0_f_1_31)">
<rect x="199.458" y="140.711" width="182" height="265" rx="5.22453" transform="rotate(-19 199.458 140.711)" fill="url(#paint0_linear_1_31)" stroke="white" stroke-width="4"/>
<path d="M340.063 269.929C335.249 271.587 330.673 272.189 326.335 271.736C321.996 271.283 318.216 269.904 314.995 267.6C311.796 265.288 309.472 262.17 308.025 258.246L323.497 252.919C324.462 255.302 326.124 256.918 328.482 257.764C330.834 258.589 333.288 258.561 335.845 257.681C337.843 256.992 339.465 255.942 340.708 254.528C341.952 253.114 342.741 251.46 343.074 249.567C343.401 247.652 343.194 245.656 342.455 243.579C341.744 241.444 340.663 239.737 339.213 238.457C337.784 237.17 336.134 236.357 334.262 236.016C332.404 235.646 330.465 235.809 328.445 236.504C326.525 237.141 324.854 238.186 323.431 239.637C322.029 241.081 321.143 242.696 320.772 244.482L305.776 246.689L296.392 210.116L338.747 195.532L343.175 208.393L313.939 218.46L317.785 234.55L318.172 234.417C318.639 232.213 319.883 230.102 321.904 228.084C323.94 226.037 326.515 224.477 329.631 223.404C333.585 222.043 337.428 221.753 341.158 222.536C344.903 223.29 348.226 224.982 351.127 227.613C354.049 230.236 356.232 233.643 357.675 237.833C359.236 242.367 359.545 246.756 358.602 250.998C357.681 255.234 355.641 259.013 352.483 262.336C349.338 265.63 345.198 268.161 340.063 269.929Z" fill="white"/>
</g>
<rect x="190.458" y="131.711" width="182" height="265" rx="5.22453" transform="rotate(-19 190.458 131.711)" fill="url(#paint1_linear_1_31)" stroke="white" stroke-width="4"/>
<path d="M331.063 260.929C326.249 262.587 321.673 263.189 317.335 262.736C312.996 262.283 309.216 260.904 305.995 258.6C302.796 256.288 300.472 253.17 299.025 249.246L314.497 243.919C315.462 246.302 317.124 247.918 319.482 248.764C321.834 249.589 324.288 249.561 326.845 248.681C328.843 247.992 330.465 246.942 331.708 245.528C332.952 244.114 333.741 242.46 334.074 240.567C334.401 238.652 334.194 236.656 333.455 234.579C332.744 232.444 331.663 230.737 330.213 229.457C328.784 228.17 327.134 227.357 325.262 227.016C323.404 226.646 321.465 226.809 319.445 227.504C317.525 228.141 315.854 229.186 314.431 230.637C313.029 232.081 312.143 233.696 311.772 235.482L296.776 237.689L287.392 201.116L329.747 186.532L334.175 199.393L304.939 209.46L308.785 225.55L309.172 225.417C309.639 223.213 310.883 221.102 312.904 219.084C314.94 217.037 317.515 215.477 320.631 214.404C324.585 213.043 328.428 212.753 332.158 213.536C335.903 214.29 339.226 215.982 342.127 218.613C345.049 221.236 347.232 224.643 348.675 228.833C350.236 233.367 350.545 237.756 349.602 241.998C348.681 246.234 346.641 250.013 343.483 253.336C340.338 256.63 336.198 259.161 331.063 260.929Z" fill="white"/>
<g filter="url(#filter1_dd_1_31)">
<rect x="433" y="243" width="178" height="261" rx="3.22453" fill="url(#paint2_linear_1_31)"/>
<path d="M522.42 408.955C516.989 408.955 512.136 408.091 507.864 406.364C503.614 404.614 500.273 402.25 497.841 399.273C495.432 396.273 494.227 392.887 494.227 389.114C494.227 386.227 494.92 383.58 496.307 381.171C497.693 378.762 499.568 376.762 501.932 375.171C504.318 373.557 506.977 372.523 509.909 372.068V371.523C506.068 370.818 502.92 369.034 500.466 366.171C498.034 363.307 496.818 359.955 496.818 356.114C496.818 352.477 497.92 349.239 500.125 346.398C502.352 343.557 505.386 341.318 509.227 339.682C513.091 338.046 517.489 337.227 522.42 337.227C527.352 337.227 531.739 338.046 535.58 339.682C539.443 341.318 542.477 343.557 544.682 346.398C546.909 349.239 548.023 352.477 548.023 356.114C548.023 359.977 546.784 363.341 544.307 366.205C541.852 369.046 538.727 370.818 534.932 371.523V372.068C537.841 372.523 540.477 373.557 542.841 375.171C545.227 376.762 547.114 378.762 548.5 381.171C549.909 383.58 550.614 386.227 550.614 389.114C550.614 392.887 549.398 396.273 546.966 399.273C544.534 402.25 541.193 404.614 536.943 406.364C532.716 408.091 527.875 408.955 522.42 408.955ZM522.42 396.989C524.489 396.989 526.307 396.602 527.875 395.83C529.443 395.034 530.67 393.932 531.557 392.523C532.466 391.114 532.92 389.523 532.92 387.75C532.92 385.932 532.466 384.318 531.557 382.909C530.648 381.5 529.398 380.398 527.807 379.602C526.239 378.784 524.443 378.375 522.42 378.375C520.42 378.375 518.625 378.784 517.034 379.602C515.443 380.398 514.193 381.5 513.284 382.909C512.375 384.318 511.92 385.932 511.92 387.75C511.92 389.523 512.364 391.114 513.25 392.523C514.159 393.909 515.398 395 516.966 395.796C518.557 396.591 520.375 396.989 522.42 396.989ZM522.42 366.477C524.193 366.477 525.761 366.114 527.125 365.387C528.511 364.659 529.591 363.648 530.364 362.352C531.159 361.057 531.557 359.591 531.557 357.955C531.557 356.318 531.159 354.875 530.364 353.625C529.591 352.375 528.523 351.398 527.159 350.693C525.795 349.966 524.216 349.602 522.42 349.602C520.648 349.602 519.068 349.966 517.682 350.693C516.295 351.398 515.216 352.375 514.443 353.625C513.67 354.875 513.284 356.318 513.284 357.955C513.284 359.591 513.67 361.057 514.443 362.352C515.239 363.625 516.33 364.637 517.716 365.387C519.102 366.114 520.67 366.477 522.42 366.477Z" fill="white"/>
</g>
<g filter="url(#filter2_f_1_31)">
<rect x="80" y="238" width="178" height="261" rx="3.22453" fill="url(#paint3_linear_1_31)"/>
<path d="M168.705 403.955C163.386 403.955 158.67 403.045 154.557 401.227C150.466 399.386 147.239 396.852 144.875 393.625C142.511 390.398 141.307 386.682 141.261 382.477H158.239C158.307 384 158.795 385.352 159.705 386.534C160.614 387.693 161.852 388.602 163.42 389.261C164.989 389.92 166.773 390.25 168.773 390.25C170.773 390.25 172.534 389.898 174.057 389.193C175.602 388.466 176.807 387.477 177.67 386.227C178.534 384.955 178.955 383.5 178.932 381.864C178.955 380.227 178.489 378.773 177.534 377.5C176.58 376.227 175.227 375.239 173.477 374.534C171.75 373.83 169.705 373.477 167.341 373.477H160.557V361.477H167.341C169.409 361.477 171.227 361.136 172.795 360.455C174.386 359.773 175.625 358.818 176.511 357.591C177.398 356.341 177.83 354.909 177.807 353.295C177.83 351.727 177.455 350.352 176.682 349.17C175.932 347.966 174.875 347.034 173.511 346.375C172.17 345.716 170.614 345.386 168.841 345.386C166.977 345.386 165.284 345.716 163.761 346.375C162.261 347.034 161.068 347.966 160.182 349.17C159.295 350.375 158.83 351.773 158.784 353.364H142.659C142.705 349.205 143.864 345.545 146.136 342.386C148.409 339.205 151.5 336.716 155.409 334.92C159.341 333.125 163.818 332.227 168.841 332.227C173.841 332.227 178.239 333.102 182.034 334.852C185.83 336.602 188.784 338.989 190.898 342.011C193.011 345.011 194.068 348.409 194.068 352.205C194.091 356.136 192.807 359.375 190.216 361.92C187.648 364.466 184.341 366.034 180.295 366.625V367.17C185.705 367.807 189.784 369.557 192.534 372.42C195.307 375.284 196.682 378.864 196.659 383.159C196.659 387.205 195.466 390.795 193.08 393.932C190.716 397.045 187.42 399.5 183.193 401.295C178.989 403.068 174.159 403.955 168.705 403.955Z" fill="white"/>
</g>
<rect x="71" y="226" width="178" height="261" rx="3.22453" fill="url(#paint4_linear_1_31)"/>
<path d="M159.705 391.955C154.386 391.955 149.67 391.045 145.557 389.227C141.466 387.386 138.239 384.852 135.875 381.625C133.511 378.398 132.307 374.682 132.261 370.477H149.239C149.307 372 149.795 373.352 150.705 374.534C151.614 375.693 152.852 376.602 154.42 377.261C155.989 377.92 157.773 378.25 159.773 378.25C161.773 378.25 163.534 377.898 165.057 377.193C166.602 376.466 167.807 375.477 168.67 374.227C169.534 372.955 169.955 371.5 169.932 369.864C169.955 368.227 169.489 366.773 168.534 365.5C167.58 364.227 166.227 363.239 164.477 362.534C162.75 361.83 160.705 361.477 158.341 361.477H151.557V349.477H158.341C160.409 349.477 162.227 349.136 163.795 348.455C165.386 347.773 166.625 346.818 167.511 345.591C168.398 344.341 168.83 342.909 168.807 341.295C168.83 339.727 168.455 338.352 167.682 337.17C166.932 335.966 165.875 335.034 164.511 334.375C163.17 333.716 161.614 333.386 159.841 333.386C157.977 333.386 156.284 333.716 154.761 334.375C153.261 335.034 152.068 335.966 151.182 337.17C150.295 338.375 149.83 339.773 149.784 341.364H133.659C133.705 337.205 134.864 333.545 137.136 330.386C139.409 327.205 142.5 324.716 146.409 322.92C150.341 321.125 154.818 320.227 159.841 320.227C164.841 320.227 169.239 321.102 173.034 322.852C176.83 324.602 179.784 326.989 181.898 330.011C184.011 333.011 185.068 336.409 185.068 340.205C185.091 344.136 183.807 347.375 181.216 349.92C178.648 352.466 175.341 354.034 171.295 354.625V355.17C176.705 355.807 180.784 357.557 183.534 360.42C186.307 363.284 187.682 366.864 187.659 371.159C187.659 375.205 186.466 378.795 184.08 381.932C181.716 385.045 178.42 387.5 174.193 389.295C169.989 391.068 165.159 391.955 159.705 391.955Z" fill="white"/>
<g filter="url(#filter3_f_1_31)">
<rect x="638" y="253" width="178" height="261" rx="3.22453" fill="url(#paint5_linear_1_31)"/>
<path d="M716.432 349.182V419H699.591V364.932H699.182L683.568 374.477V359.886L700.784 349.182H716.432ZM764.151 349.182V419H747.31V364.932H746.901L731.287 374.477V359.886L748.503 349.182H764.151Z" fill="white"/>
</g>
<rect x="629" y="243" width="178" height="261" rx="3.22453" fill="url(#paint6_linear_1_31)"/>
<path d="M707.432 339.182V409H690.591V354.932H690.182L674.568 364.477V349.886L691.784 339.182H707.432ZM755.151 339.182V409H738.31V354.932H737.901L722.287 364.477V349.886L739.503 339.182H755.151Z" fill="white"/>
<defs>
<filter id="filter0_f_1_31" x="118.872" y="0.872162" width="419.531" height="470.987" filterUnits="userSpaceOnUse" color-interpolation-filters="sRGB">
<feFlood flood-opacity="0" result="BackgroundImageFix"/>
<feBlend mode="normal" in="SourceGraphic" in2="BackgroundImageFix" result="shape"/>
<feGaussianBlur stdDeviation="40" result="effect1_foregroundBlur_1_31"/>
</filter>
<filter id="filter1_dd_1_31" x="343" y="153" width="378" height="461" filterUnits="userSpaceOnUse" color-interpolation-filters="sRGB">
<feFlood flood-opacity="0" result="BackgroundImageFix"/>
<feColorMatrix in="SourceAlpha" type="matrix" values="0 0 0 0 0 0 0 0 0 0 0 0 0 0 0 0 0 0 127 0" result="hardAlpha"/>
<feOffset dx="10" dy="10"/>
<feGaussianBlur stdDeviation="50"/>
<feComposite in2="hardAlpha" operator="out"/>
<feColorMatrix type="matrix" values="0 0 0 0 1 0 0 0 0 1 0 0 0 0 1 0 0 0 0.5 0"/>
<feBlend mode="normal" in2="BackgroundImageFix" result="effect1_dropShadow_1_31"/>
<feColorMatrix in="SourceAlpha" type="matrix" values="0 0 0 0 0 0 0 0 0 0 0 0 0 0 0 0 0 0 127 0" result="hardAlpha"/>
<feOffset dy="4"/>
<feGaussianBlur stdDeviation="2"/>
<feComposite in2="hardAlpha" operator="out"/>
<feColorMatrix type="matrix" values="0 0 0 0 0 0 0 0 0 0 0 0 0 0 0 0 0 0 0.25 0"/>
<feBlend mode="normal" in2="effect1_dropShadow_1_31" result="effect2_dropShadow_1_31"/>
<feBlend mode="normal" in="SourceGraphic" in2="effect2_dropShadow_1_31" result="shape"/>
</filter>
<filter id="filter2_f_1_31" x="0" y="158" width="338" height="421" filterUnits="userSpaceOnUse" color-interpolation-filters="sRGB">
<feFlood flood-opacity="0" result="BackgroundImageFix"/>
<feBlend mode="normal" in="SourceGraphic" in2="BackgroundImageFix" result="shape"/>
<feGaussianBlur stdDeviation="40" result="effect1_foregroundBlur_1_31"/>
</filter>
<filter id="filter3_f_1_31" x="558" y="173" width="338" height="421" filterUnits="userSpaceOnUse" color-interpolation-filters="sRGB">
<feFlood flood-opacity="0" result="BackgroundImageFix"/>
<feBlend mode="normal" in="SourceGraphic" in2="BackgroundImageFix" result="shape"/>
<feGaussianBlur stdDeviation="40" result="effect1_foregroundBlur_1_31"/>
</filter>
<linearGradient id="paint0_linear_1_31" x1="202" y1="272.451" x2="380" y2="272.451" gradientUnits="userSpaceOnUse">
<stop stop-color="#B8CBB8"/>
<stop stop-color="#B8CBB8"/>
<stop stop-color="#B465DA"/>
<stop offset="0.33" stop-color="#CF6CC9"/>
<stop offset="0.66" stop-color="#EE609C"/>
<stop offset="1" stop-color="#EE609C"/>
</linearGradient>
<linearGradient id="paint1_linear_1_31" x1="193" y1="263.451" x2="371" y2="263.451" gradientUnits="userSpaceOnUse">
<stop stop-color="#B8CBB8"/>
<stop stop-color="#B8CBB8"/>
<stop stop-color="#B465DA"/>
<stop offset="0.33" stop-color="#CF6CC9"/>
<stop offset="0.66" stop-color="#EE609C"/>
<stop offset="1" stop-color="#EE609C"/>
</linearGradient>
<linearGradient id="paint2_linear_1_31" x1="433" y1="373.5" x2="611" y2="373.5" gradientUnits="userSpaceOnUse">
<stop stop-color="#434343"/>
<stop offset="1"/>
</linearGradient>
<linearGradient id="paint3_linear_1_31" x1="80" y1="368.5" x2="258" y2="368.5" gradientUnits="userSpaceOnUse">
<stop stop-color="#F83600"/>
<stop offset="1" stop-color="#F9D423"/>
</linearGradient>
<linearGradient id="paint4_linear_1_31" x1="71" y1="356.5" x2="249" y2="356.5" gradientUnits="userSpaceOnUse">
<stop stop-color="#F83600"/>
<stop offset="1" stop-color="#F9D423"/>
</linearGradient>
<linearGradient id="paint5_linear_1_31" x1="638" y1="383.5" x2="816" y2="383.5" gradientUnits="userSpaceOnUse">
<stop stop-color="#0BA360"/>
<stop offset="1" stop-color="#3CBA92"/>
</linearGradient>
<linearGradient id="paint6_linear_1_31" x1="629" y1="373.5" x2="807" y2="373.5" gradientUnits="userSpaceOnUse">
<stop stop-color="#0BA360"/>
<stop offset="1" stop-color="#3CBA92"/>
</linearGradient>
</defs>
</svg>
