<svg width="56" height="56" viewBox="0 0 56 56" fill="none" xmlns="http://www.w3.org/2000/svg">
<g id="tabler:hand-finger">
<g id="Group">
<path id="Vector" d="M37.3335 25.6667V45.5C37.3335 46.4283 36.9647 47.3185 36.3084 47.9749C35.652 48.6313 34.7618 49 33.8335 49C32.9052 49 32.015 48.6313 31.3586 47.9749C30.7022 47.3185 30.3335 46.4283 30.3335 45.5L30.3335 28M30.3335 29.1667L30.3335 33.8333C30.3335 34.293 30.243 34.7481 30.0671 35.1727C29.8912 35.5974 29.6334 35.9832 29.3084 36.3082C28.9834 36.6332 28.5975 36.891 28.1729 37.0669C27.7483 37.2428 27.2931 37.3333 26.8335 37.3333C26.3739 37.3333 25.9187 37.2428 25.4941 37.0669C25.0695 36.891 24.6836 36.6332 24.3586 36.3082C24.0336 35.9832 23.7758 35.5974 23.5999 35.1727C23.424 34.7481 23.3335 34.293 23.3335 33.8333V28M23.3335 31.5C23.3335 32.4283 22.9647 33.3185 22.3084 33.9749C21.652 34.6313 20.7618 35 19.8335 35C18.9052 35 18.015 34.6313 17.3586 33.9749C16.7022 33.3185 16.3335 32.4283 16.3335 31.5V28" stroke="#C69749" stroke-width="2" stroke-linecap="round" stroke-linejoin="round"/>
<path id="Vector_2" d="M16.3334 29.1667C16.3334 30.0949 15.9646 30.9852 15.3083 31.6415C14.6519 32.2979 13.7617 32.6667 12.8334 32.6667C11.9051 32.6667 11.0149 32.2979 10.3585 31.6415C9.70215 30.9852 9.3334 30.0949 9.3334 29.1667V18.6667C9.3334 14.9536 10.8084 11.3927 13.4339 8.76718C16.0594 6.14167 19.6204 4.66668 23.3334 4.66668H28.0001H27.5147C29.8333 4.66628 32.1156 5.24173 34.1568 6.34134C36.198 7.44095 37.9342 9.03031 39.2094 10.9667C39.3624 11.1996 39.5149 11.433 39.6667 11.6667C40.3947 12.7843 42.9497 17.2387 47.3341 25.032C47.781 25.8264 47.9004 26.7639 47.6668 27.645C47.4333 28.5261 46.8652 29.2813 46.0834 29.75C45.2507 30.2497 44.2749 30.4567 43.311 30.3384C42.3472 30.22 41.4505 29.783 40.7634 29.0967L37.3334 25.6667" stroke="#C69749" stroke-width="2" stroke-linecap="round" stroke-linejoin="round"/>
</g>
</g>
</svg>
