<svg width="1086" height="380" viewBox="0 0 1086 380" fill="none" xmlns="http://www.w3.org/2000/svg">
<rect width="1047.6" height="379.382" fill="black"/>
<rect y="289.867" width="132.206" height="172.513" rx="3.22453" transform="rotate(-58.7423 0 289.867)" fill="#97FEED"/>
<rect x="0.30127" y="217.71" width="132.206" height="172.513" rx="3.22453" transform="rotate(-45.0504 0.30127 217.71)" fill="white"/>
<rect x="58.7739" y="133.179" width="132.206" height="172.513" rx="3.22453" transform="rotate(-20.5685 58.7739 133.179)" fill="#97FEED"/>
<rect x="105.099" y="80.3338" width="132.206" height="172.513" rx="3.22453" transform="rotate(-8.29252 105.099 80.3338)" fill="white"/>
<rect x="167.977" y="37.0822" width="132.206" height="172.513" rx="3.22453" fill="#97FEED"/>
<g filter="url(#filter0_d_18_517)">
<path d="M298.379 150V37.4344H342.79C351.328 37.4344 358.601 39.065 364.61 42.3262C370.62 45.5507 375.2 50.0394 378.351 55.7923C381.539 61.5085 383.133 68.1042 383.133 75.5792C383.133 83.0543 381.521 89.6499 378.296 95.3661C375.072 101.082 370.4 105.534 364.281 108.722C358.198 111.91 350.833 113.504 342.185 113.504H313.879V94.4317H338.338C342.918 94.4317 346.692 93.6439 349.66 92.0683C352.665 90.456 354.9 88.2392 356.366 85.4177C357.868 82.5596 358.619 79.2801 358.619 75.5792C358.619 71.8417 357.868 68.5805 356.366 65.7957C354.9 62.9742 352.665 60.794 349.66 59.255C346.656 57.6794 342.845 56.8916 338.228 56.8916H322.178V150H298.379ZM421.567 37.4344V150H398.152V37.4344H421.567ZM464.397 151.594C459.011 151.594 454.21 150.66 449.996 148.791C445.783 146.885 442.448 144.082 439.993 140.381C437.575 136.644 436.365 131.99 436.365 126.421C436.365 121.73 437.227 117.791 438.949 114.603C440.671 111.416 443.016 108.851 445.984 106.908C448.952 104.966 452.323 103.501 456.097 102.511C459.908 101.522 463.902 100.826 468.08 100.423C472.99 99.9098 476.947 99.4334 479.952 98.9937C482.956 98.5174 485.137 97.8212 486.492 96.9051C487.848 95.989 488.526 94.6333 488.526 92.8378V92.508C488.526 89.027 487.427 86.3338 485.228 84.4284C483.066 82.523 479.988 81.5702 475.994 81.5702C471.78 81.5702 468.428 82.5046 465.936 84.3734C463.444 86.2055 461.795 88.514 460.989 91.2988L439.334 89.54C440.433 84.41 442.595 79.9763 445.819 76.2388C449.044 72.4646 453.203 69.5698 458.296 67.5545C463.426 65.5025 469.362 64.4766 476.104 64.4766C480.794 64.4766 485.283 65.0262 489.57 66.1255C493.894 67.2247 497.723 68.9286 501.058 71.2371C504.429 73.5456 507.085 76.5136 509.027 80.1412C510.969 83.7322 511.941 88.0376 511.941 93.0577V150H489.735V138.293H489.076C487.72 140.931 485.906 143.258 483.634 145.273C481.362 147.252 478.633 148.809 475.445 149.945C472.257 151.044 468.574 151.594 464.397 151.594ZM471.103 135.435C474.547 135.435 477.588 134.757 480.226 133.401C482.865 132.009 484.935 130.14 486.437 127.795C487.94 125.45 488.691 122.793 488.691 119.825V110.866C487.958 111.342 486.95 111.782 485.668 112.185C484.422 112.551 483.011 112.9 481.436 113.229C479.86 113.522 478.284 113.797 476.709 114.054C475.133 114.274 473.704 114.475 472.422 114.658C469.673 115.061 467.273 115.703 465.221 116.582C463.169 117.462 461.575 118.652 460.44 120.155C459.304 121.62 458.736 123.453 458.736 125.651C458.736 128.839 459.89 131.276 462.198 132.961C464.544 134.61 467.512 135.435 471.103 135.435ZM553.521 101.192V150H530.106V65.5758H552.421V80.471H553.411C555.279 75.5609 558.412 71.6768 562.809 68.8187C567.206 65.9239 572.538 64.4766 578.804 64.4766C584.667 64.4766 589.778 65.759 594.139 68.324C598.499 70.889 601.889 74.5532 604.307 79.3167C606.725 84.0436 607.935 89.6865 607.935 96.2455V150H584.52V100.423C584.557 95.2562 583.238 91.2255 580.563 88.3308C577.888 85.3994 574.205 83.9337 569.515 83.9337C566.364 83.9337 563.579 84.6116 561.16 85.9673C558.779 87.3231 556.91 89.3018 555.554 91.9034C554.235 94.4684 553.557 97.5647 553.521 101.192ZM649.803 101.192V150H626.389V65.5758H648.704V80.471H649.693C651.562 75.5609 654.695 71.6768 659.092 68.8187C663.489 65.9239 668.821 64.4766 675.086 64.4766C680.949 64.4766 686.061 65.759 690.421 68.324C694.782 70.889 698.171 74.5532 700.589 79.3167C703.008 84.0436 704.217 89.6865 704.217 96.2455V150H680.803V100.423C680.839 95.2562 679.52 91.2255 676.845 88.3308C674.17 85.3994 670.488 83.9337 665.798 83.9337C662.646 83.9337 659.861 84.6116 657.443 85.9673C655.061 87.3231 653.193 89.3018 651.837 91.9034C650.518 94.4684 649.84 97.5647 649.803 101.192ZM722.671 150V65.5758H746.086V150H722.671ZM734.433 54.693C730.952 54.693 727.966 53.5388 725.474 51.2303C723.019 48.8852 721.792 46.082 721.792 42.8209C721.792 39.5963 723.019 36.8298 725.474 34.5214C727.966 32.1762 730.952 31.0037 734.433 31.0037C737.914 31.0037 740.882 32.1762 743.337 34.5214C745.829 36.8298 747.075 39.5963 747.075 42.8209C747.075 46.082 745.829 48.8852 743.337 51.2303C740.882 53.5388 737.914 54.693 734.433 54.693ZM788.257 101.192V150H764.842V65.5758H787.157V80.471H788.147C790.015 75.5609 793.148 71.6768 797.545 68.8187C801.942 65.9239 807.274 64.4766 813.54 64.4766C819.403 64.4766 824.514 65.759 828.875 68.324C833.235 70.889 836.625 74.5532 839.043 79.3167C841.461 84.0436 842.671 89.6865 842.671 96.2455V150H819.256V100.423C819.293 95.2562 817.974 91.2255 815.299 88.3308C812.624 85.3994 808.941 83.9337 804.251 83.9337C801.1 83.9337 798.315 84.6116 795.896 85.9673C793.515 87.3231 791.646 89.3018 790.29 91.9034C788.971 94.4684 788.293 97.5647 788.257 101.192ZM899.159 183.418C891.574 183.418 885.07 182.374 879.647 180.285C874.261 178.233 869.974 175.43 866.786 171.876C863.598 168.321 861.528 164.327 860.575 159.893L882.231 156.98C882.89 158.666 883.934 160.242 885.364 161.707C886.793 163.173 888.68 164.346 891.025 165.225C893.407 166.141 896.301 166.599 899.709 166.599C904.802 166.599 908.998 165.353 912.296 162.861C915.63 160.406 917.297 156.284 917.297 150.495V135.05H916.308C915.282 137.395 913.743 139.612 911.691 141.7C909.639 143.789 907.001 145.493 903.776 146.812C900.552 148.131 896.704 148.791 892.234 148.791C885.895 148.791 880.124 147.325 874.92 144.394C869.754 141.426 865.632 136.9 862.554 130.818C859.512 124.698 857.992 116.967 857.992 107.623C857.992 98.0593 859.549 90.0713 862.664 83.6589C865.778 77.2464 869.919 72.4463 875.085 69.2584C880.289 66.0705 885.986 64.4766 892.179 64.4766C896.906 64.4766 900.863 65.2827 904.051 66.895C907.239 68.4706 909.804 70.4493 911.746 72.831C913.725 75.1761 915.245 77.4846 916.308 79.7564H917.188V65.5758H940.437V150.824C940.437 158.006 938.678 164.016 935.161 168.853C931.643 173.689 926.77 177.317 920.54 179.735C914.348 182.19 907.221 183.418 899.159 183.418ZM899.654 131.202C903.428 131.202 906.616 130.268 909.218 128.399C911.856 126.494 913.871 123.782 915.264 120.265C916.693 116.71 917.407 112.46 917.407 107.513C917.407 102.566 916.711 98.2792 915.319 94.6516C913.926 90.9874 911.911 88.1476 909.273 86.1322C906.634 84.1169 903.428 83.1092 899.654 83.1092C895.807 83.1092 892.564 84.1535 889.926 86.2422C887.287 88.2941 885.29 91.1522 883.935 94.8165C882.579 98.4807 881.901 102.713 881.901 107.513C881.901 112.387 882.579 116.6 883.935 120.155C885.327 123.672 887.324 126.402 889.926 128.344C892.564 130.25 895.807 131.202 899.654 131.202ZM620.782 337V224.434H665.193C673.731 224.434 681.004 226.065 687.014 229.326C693.023 232.551 697.603 237.039 700.754 242.792C703.942 248.509 705.536 255.104 705.536 262.579C705.536 270.054 703.924 276.65 700.699 282.366C697.475 288.082 692.803 292.534 686.684 295.722C680.601 298.91 673.236 300.504 664.588 300.504H636.282V281.432H660.741C665.321 281.432 669.095 280.644 672.063 279.068C675.068 277.456 677.303 275.239 678.769 272.418C680.271 269.56 681.022 266.28 681.022 262.579C681.022 258.842 680.271 255.581 678.769 252.796C677.303 249.974 675.068 247.794 672.063 246.255C669.059 244.679 665.248 243.892 660.631 243.892H644.582V337H620.782ZM757.339 338.649C748.802 338.649 741.418 336.835 735.189 333.208C728.997 329.543 724.215 324.45 720.844 317.928C717.473 311.369 715.787 303.765 715.787 295.118C715.787 286.397 717.473 278.775 720.844 272.253C724.215 265.694 728.997 260.601 735.189 256.973C741.418 253.309 748.802 251.477 757.339 251.477C765.877 251.477 773.242 253.309 779.435 256.973C785.664 260.601 790.464 265.694 793.835 272.253C797.206 278.775 798.892 286.397 798.892 295.118C798.892 303.765 797.206 311.369 793.835 317.928C790.464 324.45 785.664 329.543 779.435 333.208C773.242 336.835 765.877 338.649 757.339 338.649ZM757.449 320.511C761.334 320.511 764.576 319.412 767.178 317.213C769.78 314.978 771.74 311.937 773.059 308.089C774.415 304.242 775.093 299.863 775.093 294.953C775.093 290.043 774.415 285.664 773.059 281.816C771.74 277.969 769.78 274.928 767.178 272.693C764.576 270.457 761.334 269.34 757.449 269.34C753.529 269.34 750.231 270.457 747.556 272.693C744.918 274.928 742.921 277.969 741.565 281.816C740.246 285.664 739.586 290.043 739.586 294.953C739.586 299.863 740.246 304.242 741.565 308.089C742.921 311.937 744.918 314.978 747.556 317.213C750.231 319.412 753.529 320.511 757.449 320.511ZM835.333 312.706L835.388 284.62H838.796L865.838 252.576H892.715L856.384 295.008H850.833L835.333 312.706ZM814.117 337V224.434H837.531V337H814.117ZM866.882 337L842.038 300.229L857.648 283.685L894.309 337H866.882ZM939.201 338.649C930.516 338.649 923.041 336.89 916.775 333.372C910.546 329.818 905.746 324.798 902.375 318.312C899.004 311.79 897.318 304.077 897.318 295.173C897.318 286.488 899.004 278.867 902.375 272.308C905.746 265.749 910.491 260.637 916.61 256.973C922.766 253.309 929.985 251.477 938.266 251.477C943.836 251.477 949.021 252.374 953.821 254.17C958.658 255.929 962.872 258.585 966.462 262.14C970.09 265.694 972.912 270.164 974.927 275.551C976.942 280.9 977.95 287.166 977.95 294.348V300.779H906.662V286.269H955.909C955.909 282.897 955.177 279.911 953.711 277.309C952.245 274.708 950.212 272.674 947.61 271.209C945.045 269.706 942.059 268.955 938.651 268.955C935.097 268.955 931.945 269.779 929.197 271.428C926.486 273.041 924.36 275.221 922.821 277.969C921.282 280.681 920.495 283.704 920.458 287.038V300.834C920.458 305.011 921.227 308.62 922.766 311.662C924.342 314.703 926.559 317.048 929.417 318.697C932.275 320.346 935.665 321.17 939.585 321.17C942.187 321.17 944.569 320.804 946.731 320.071C948.892 319.338 950.743 318.239 952.282 316.773C953.821 315.308 954.993 313.512 955.8 311.387L977.455 312.816C976.356 318.019 974.102 322.563 970.695 326.447C967.324 330.294 962.963 333.299 957.613 335.461C952.3 337.586 946.163 338.649 939.201 338.649ZM993.23 337V252.576H1015.93V267.306H1016.81C1018.35 262.066 1020.93 258.109 1024.56 255.434C1028.19 252.722 1032.36 251.367 1037.09 251.367C1038.26 251.367 1039.53 251.44 1040.88 251.586C1042.24 251.733 1043.43 251.935 1044.46 252.191V272.967C1043.36 272.638 1041.84 272.344 1039.89 272.088C1037.95 271.831 1036.17 271.703 1034.56 271.703C1031.12 271.703 1028.04 272.454 1025.33 273.957C1022.65 275.422 1020.53 277.474 1018.95 280.113C1017.41 282.751 1016.64 285.792 1016.64 289.237V337H993.23Z" fill="#97FEED"/>
</g>
<defs>
<filter id="filter0_d_18_517" x="298.379" y="31.0037" width="787.076" height="348.645" filterUnits="userSpaceOnUse" color-interpolation-filters="sRGB">
<feFlood flood-opacity="0" result="BackgroundImageFix"/>
<feColorMatrix in="SourceAlpha" type="matrix" values="0 0 0 0 0 0 0 0 0 0 0 0 0 0 0 0 0 0 127 0" result="hardAlpha"/>
<feOffset dx="22" dy="22"/>
<feGaussianBlur stdDeviation="9.5"/>
<feComposite in2="hardAlpha" operator="out"/>
<feColorMatrix type="matrix" values="0 0 0 0 0 0 0 0 0 0 0 0 0 0 0 0 0 0 0.42 0"/>
<feBlend mode="normal" in2="BackgroundImageFix" result="effect1_dropShadow_18_517"/>
<feBlend mode="normal" in="SourceGraphic" in2="effect1_dropShadow_18_517" result="shape"/>
</filter>
</defs>
</svg>
